# Aether Wastes 1.3 — ether_crystal, 63 faces
mtllib ether_crystal.mtl
o ether_crystal
v 0.15285 -0.08000 0.04728
v 0.15285 0.26000 0.04728
v 0.03548 0.26000 0.15602
v 0.03548 -0.08000 0.15602
v 0.15285 0.26000 0.04728
v 0.00000 0.50000 0.00000
v 0.03548 0.26000 0.15602
v 0.03548 -0.08000 0.15602
v 0.00000 -0.28000 0.00000
v 0.15285 -0.08000 0.04728
v 0.03548 -0.08000 0.15602
v 0.03548 0.26000 0.15602
v -0.11738 0.26000 0.10873
v -0.11738 -0.08000 0.10873
v 0.03548 0.26000 0.15602
v 0.00000 0.50000 0.00000
v -0.11738 0.26000 0.10873
v -0.11738 -0.08000 0.10873
v 0.00000 -0.28000 0.00000
v 0.03548 -0.08000 0.15602
v -0.11738 -0.08000 0.10873
v -0.11738 0.26000 0.10873
v -0.15285 0.26000 -0.04728
v -0.15285 -0.08000 -0.04728
v -0.11738 0.26000 0.10873
v 0.00000 0.50000 0.00000
v -0.15285 0.26000 -0.04728
v -0.15285 -0.08000 -0.04728
v 0.00000 -0.28000 0.00000
v -0.11738 -0.08000 0.10873
v -0.15285 -0.08000 -0.04728
v -0.15285 0.26000 -0.04728
v -0.03548 0.26000 -0.15602
v -0.03548 -0.08000 -0.15602
v -0.15285 0.26000 -0.04728
v 0.00000 0.50000 0.00000
v -0.03548 0.26000 -0.15602
v -0.03548 -0.08000 -0.15602
v 0.00000 -0.28000 0.00000
v -0.15285 -0.08000 -0.04728
v -0.03548 -0.08000 -0.15602
v -0.03548 0.26000 -0.15602
v 0.11738 0.26000 -0.10873
v 0.11738 -0.08000 -0.10873
v -0.03548 0.26000 -0.15602
v 0.00000 0.50000 0.00000
v 0.11738 0.26000 -0.10873
v 0.11738 -0.08000 -0.10873
v 0.00000 -0.28000 0.00000
v -0.03548 -0.08000 -0.15602
v 0.11738 -0.08000 -0.10873
v 0.11738 0.26000 -0.10873
v 0.15285 0.26000 0.04728
v 0.15285 -0.08000 0.04728
v 0.11738 0.26000 -0.10873
v 0.00000 0.50000 0.00000
v 0.15285 0.26000 0.04728
v 0.15285 -0.08000 0.04728
v 0.00000 -0.28000 0.00000
v 0.11738 -0.08000 -0.10873
v 0.22528 -0.18267 0.03958
v 0.25695 -0.06831 0.09267
v 0.20308 -0.08160 0.15344
v 0.17141 -0.19596 0.10035
v 0.25695 -0.06831 0.09267
v 0.21872 0.05594 0.14169
v 0.20308 -0.08160 0.15344
v 0.17141 -0.19596 0.10035
v 0.14320 -0.21677 0.01507
v 0.22528 -0.18267 0.03958
v 0.17141 -0.19596 0.10035
v 0.20308 -0.08160 0.15344
v 0.13043 -0.05071 0.13023
v 0.09876 -0.16507 0.07714
v 0.20308 -0.08160 0.15344
v 0.21872 0.05594 0.14169
v 0.13043 -0.05071 0.13023
v 0.09876 -0.16507 0.07714
v 0.14320 -0.21677 0.01507
v 0.17141 -0.19596 0.10035
v 0.09876 -0.16507 0.07714
v 0.13043 -0.05071 0.13023
v 0.13940 -0.01832 0.05512
v 0.10773 -0.13268 0.00202
v 0.13043 -0.05071 0.13023
v 0.21872 0.05594 0.14169
v 0.13940 -0.01832 0.05512
v 0.10773 -0.13268 0.00202
v 0.14320 -0.21677 0.01507
v 0.09876 -0.16507 0.07714
v 0.10773 -0.13268 0.00202
v 0.13940 -0.01832 0.05512
v 0.21759 -0.02919 0.03191
v 0.18592 -0.14355 -0.02119
v 0.13940 -0.01832 0.05512
v 0.21872 0.05594 0.14169
v 0.21759 -0.02919 0.03191
v 0.18592 -0.14355 -0.02119
v 0.14320 -0.21677 0.01507
v 0.10773 -0.13268 0.00202
v 0.18592 -0.14355 -0.02119
v 0.21759 -0.02919 0.03191
v 0.25695 -0.06831 0.09267
v 0.22528 -0.18267 0.03958
v 0.21759 -0.02919 0.03191
v 0.21872 0.05594 0.14169
v 0.25695 -0.06831 0.09267
v 0.22528 -0.18267 0.03958
v 0.14320 -0.21677 0.01507
v 0.18592 -0.14355 -0.02119
v -0.03461 -0.13035 0.13882
v -0.09685 -0.01627 0.14189
v -0.13856 -0.04081 0.20844
v -0.07632 -0.15490 0.20538
v -0.09685 -0.01627 0.14189
v -0.21576 0.05552 0.14472
v -0.13856 -0.04081 0.20844
v -0.07632 -0.15490 0.20538
v -0.06733 -0.21654 0.13741
v -0.03461 -0.13035 0.13882
v -0.07632 -0.15490 0.20538
v -0.13856 -0.04081 0.20844
v -0.20755 -0.07777 0.18302
v -0.14531 -0.19185 0.17995
v -0.13856 -0.04081 0.20844
v -0.21576 0.05552 0.14472
v -0.20755 -0.07777 0.18302
v -0.14531 -0.19185 0.17995
v -0.06733 -0.21654 0.13741
v -0.07632 -0.15490 0.20538
v -0.14531 -0.19185 0.17995
v -0.20755 -0.07777 0.18302
v -0.20848 -0.07606 0.10075
v -0.14624 -0.19015 0.09769
v -0.20755 -0.07777 0.18302
v -0.21576 0.05552 0.14472
v -0.20848 -0.07606 0.10075
v -0.14624 -0.19015 0.09769
v -0.06733 -0.21654 0.13741
v -0.14531 -0.19185 0.17995
v -0.14624 -0.19015 0.09769
v -0.20848 -0.07606 0.10075
v -0.14007 -0.03805 0.07533
v -0.07782 -0.15214 0.07227
v -0.20848 -0.07606 0.10075
v -0.21576 0.05552 0.14472
v -0.14007 -0.03805 0.07533
v -0.07782 -0.15214 0.07227
v -0.06733 -0.21654 0.13741
v -0.14624 -0.19015 0.09769
v -0.07782 -0.15214 0.07227
v -0.14007 -0.03805 0.07533
v -0.09685 -0.01627 0.14189
v -0.03461 -0.13035 0.13882
v -0.14007 -0.03805 0.07533
v -0.21576 0.05552 0.14472
v -0.09685 -0.01627 0.14189
v -0.03461 -0.13035 0.13882
v -0.06733 -0.21654 0.13741
v -0.07782 -0.15214 0.07227
v -0.00209 -0.17987 -0.14851
v 0.02459 -0.06557 -0.20439
v -0.01601 -0.02671 -0.14428
v -0.04269 -0.14101 -0.08840
v 0.02459 -0.06557 -0.20439
v -0.01896 0.05585 -0.25597
v -0.01601 -0.02671 -0.14428
v -0.04269 -0.14101 -0.08840
v -0.08257 -0.21672 -0.12272
v -0.00209 -0.17987 -0.14851
v -0.04269 -0.14101 -0.08840
v -0.01601 -0.02671 -0.14428
v -0.09471 -0.01956 -0.16724
v -0.12139 -0.13387 -0.11136
v -0.01601 -0.02671 -0.14428
v -0.01896 0.05585 -0.25597
v -0.09471 -0.01956 -0.16724
v -0.12139 -0.13387 -0.11136
v -0.08257 -0.21672 -0.12272
v -0.04269 -0.14101 -0.08840
v -0.12139 -0.13387 -0.11136
v -0.09471 -0.01956 -0.16724
v -0.10275 -0.05401 -0.24154
v -0.12943 -0.16832 -0.18566
v -0.09471 -0.01956 -0.16724
v -0.01896 0.05585 -0.25597
v -0.10275 -0.05401 -0.24154
v -0.12943 -0.16832 -0.18566
v -0.08257 -0.21672 -0.12272
v -0.12139 -0.13387 -0.11136
v -0.12943 -0.16832 -0.18566
v -0.10275 -0.05401 -0.24154
v -0.02902 -0.08244 -0.26450
v -0.05570 -0.19675 -0.20862
v -0.10275 -0.05401 -0.24154
v -0.01896 0.05585 -0.25597
v -0.02902 -0.08244 -0.26450
v -0.05570 -0.19675 -0.20862
v -0.08257 -0.21672 -0.12272
v -0.12943 -0.16832 -0.18566
v -0.05570 -0.19675 -0.20862
v -0.02902 -0.08244 -0.26450
v 0.02459 -0.06557 -0.20439
v -0.00209 -0.17987 -0.14851
v -0.02902 -0.08244 -0.26450
v -0.01896 0.05585 -0.25597
v 0.02459 -0.06557 -0.20439
v -0.00209 -0.17987 -0.14851
v -0.08257 -0.21672 -0.12272
v -0.05570 -0.19675 -0.20862
vt 0.00000 0.30000
vt 0.00000 0.75000
vt 0.16667 0.75000
vt 0.16667 0.30000
vt 0.00000 0.75000
vt 0.08333 1.00000
vt 0.16667 0.75000
vt 0.16667 0.30000
vt 0.08333 0.00000
vt 0.00000 0.30000
vt 0.16667 0.30000
vt 0.16667 0.75000
vt 0.33333 0.75000
vt 0.33333 0.30000
vt 0.16667 0.75000
vt 0.25000 1.00000
vt 0.33333 0.75000
vt 0.33333 0.30000
vt 0.25000 0.00000
vt 0.16667 0.30000
vt 0.33333 0.30000
vt 0.33333 0.75000
vt 0.50000 0.75000
vt 0.50000 0.30000
vt 0.33333 0.75000
vt 0.41667 1.00000
vt 0.50000 0.75000
vt 0.50000 0.30000
vt 0.41667 0.00000
vt 0.33333 0.30000
vt 0.50000 0.30000
vt 0.50000 0.75000
vt 0.66667 0.75000
vt 0.66667 0.30000
vt 0.50000 0.75000
vt 0.58333 1.00000
vt 0.66667 0.75000
vt 0.66667 0.30000
vt 0.58333 0.00000
vt 0.50000 0.30000
vt 0.66667 0.30000
vt 0.66667 0.75000
vt 0.83333 0.75000
vt 0.83333 0.30000
vt 0.66667 0.75000
vt 0.75000 1.00000
vt 0.83333 0.75000
vt 0.83333 0.30000
vt 0.75000 0.00000
vt 0.66667 0.30000
vt 0.83333 0.30000
vt 0.83333 0.75000
vt 1.00000 0.75000
vt 1.00000 0.30000
vt 0.83333 0.75000
vt 0.91667 1.00000
vt 1.00000 0.75000
vt 1.00000 0.30000
vt 0.91667 0.00000
vt 0.83333 0.30000
vt 0.00000 0.30000
vt 0.00000 0.75000
vt 0.20000 0.75000
vt 0.20000 0.30000
vt 0.00000 0.75000
vt 0.10000 1.00000
vt 0.20000 0.75000
vt 0.20000 0.30000
vt 0.10000 0.00000
vt 0.00000 0.30000
vt 0.20000 0.30000
vt 0.20000 0.75000
vt 0.40000 0.75000
vt 0.40000 0.30000
vt 0.20000 0.75000
vt 0.30000 1.00000
vt 0.40000 0.75000
vt 0.40000 0.30000
vt 0.30000 0.00000
vt 0.20000 0.30000
vt 0.40000 0.30000
vt 0.40000 0.75000
vt 0.60000 0.75000
vt 0.60000 0.30000
vt 0.40000 0.75000
vt 0.50000 1.00000
vt 0.60000 0.75000
vt 0.60000 0.30000
vt 0.50000 0.00000
vt 0.40000 0.30000
vt 0.60000 0.30000
vt 0.60000 0.75000
vt 0.80000 0.75000
vt 0.80000 0.30000
vt 0.60000 0.75000
vt 0.70000 1.00000
vt 0.80000 0.75000
vt 0.80000 0.30000
vt 0.70000 0.00000
vt 0.60000 0.30000
vt 0.80000 0.30000
vt 0.80000 0.75000
vt 1.00000 0.75000
vt 1.00000 0.30000
vt 0.80000 0.75000
vt 0.90000 1.00000
vt 1.00000 0.75000
vt 1.00000 0.30000
vt 0.90000 0.00000
vt 0.80000 0.30000
vt 0.00000 0.30000
vt 0.00000 0.75000
vt 0.20000 0.75000
vt 0.20000 0.30000
vt 0.00000 0.75000
vt 0.10000 1.00000
vt 0.20000 0.75000
vt 0.20000 0.30000
vt 0.10000 0.00000
vt 0.00000 0.30000
vt 0.20000 0.30000
vt 0.20000 0.75000
vt 0.40000 0.75000
vt 0.40000 0.30000
vt 0.20000 0.75000
vt 0.30000 1.00000
vt 0.40000 0.75000
vt 0.40000 0.30000
vt 0.30000 0.00000
vt 0.20000 0.30000
vt 0.40000 0.30000
vt 0.40000 0.75000
vt 0.60000 0.75000
vt 0.60000 0.30000
vt 0.40000 0.75000
vt 0.50000 1.00000
vt 0.60000 0.75000
vt 0.60000 0.30000
vt 0.50000 0.00000
vt 0.40000 0.30000
vt 0.60000 0.30000
vt 0.60000 0.75000
vt 0.80000 0.75000
vt 0.80000 0.30000
vt 0.60000 0.75000
vt 0.70000 1.00000
vt 0.80000 0.75000
vt 0.80000 0.30000
vt 0.70000 0.00000
vt 0.60000 0.30000
vt 0.80000 0.30000
vt 0.80000 0.75000
vt 1.00000 0.75000
vt 1.00000 0.30000
vt 0.80000 0.75000
vt 0.90000 1.00000
vt 1.00000 0.75000
vt 1.00000 0.30000
vt 0.90000 0.00000
vt 0.80000 0.30000
vt 0.00000 0.30000
vt 0.00000 0.75000
vt 0.20000 0.75000
vt 0.20000 0.30000
vt 0.00000 0.75000
vt 0.10000 1.00000
vt 0.20000 0.75000
vt 0.20000 0.30000
vt 0.10000 0.00000
vt 0.00000 0.30000
vt 0.20000 0.30000
vt 0.20000 0.75000
vt 0.40000 0.75000
vt 0.40000 0.30000
vt 0.20000 0.75000
vt 0.30000 1.00000
vt 0.40000 0.75000
vt 0.40000 0.30000
vt 0.30000 0.00000
vt 0.20000 0.30000
vt 0.40000 0.30000
vt 0.40000 0.75000
vt 0.60000 0.75000
vt 0.60000 0.30000
vt 0.40000 0.75000
vt 0.50000 1.00000
vt 0.60000 0.75000
vt 0.60000 0.30000
vt 0.50000 0.00000
vt 0.40000 0.30000
vt 0.60000 0.30000
vt 0.60000 0.75000
vt 0.80000 0.75000
vt 0.80000 0.30000
vt 0.60000 0.75000
vt 0.70000 1.00000
vt 0.80000 0.75000
vt 0.80000 0.30000
vt 0.70000 0.00000
vt 0.60000 0.30000
vt 0.80000 0.30000
vt 0.80000 0.75000
vt 1.00000 0.75000
vt 1.00000 0.30000
vt 0.80000 0.75000
vt 0.90000 1.00000
vt 1.00000 0.75000
vt 1.00000 0.30000
vt 0.90000 0.00000
vt 0.80000 0.30000
vn 0.67959 -0.00000 0.73360
vn 0.58854 0.50000 0.63531
vn 0.55862 -0.56949 0.60301
vn -0.29552 0.00000 0.95534
vn -0.25593 0.50000 0.82735
vn -0.24292 -0.56949 0.78528
vn -0.97511 0.00000 0.22174
vn -0.84447 0.50000 0.19203
vn -0.80153 -0.56949 0.18227
vn -0.67959 0.00000 -0.73360
vn -0.58854 0.50000 -0.63531
vn -0.55862 -0.56949 -0.60301
vn 0.29552 0.00000 -0.95534
vn 0.25593 0.50000 -0.82735
vn 0.24292 -0.56949 -0.78528
vn 0.97511 0.00000 -0.22174
vn 0.84447 0.50000 -0.19203
vn 0.80153 -0.56949 -0.18227
vn 0.71561 -0.44727 0.53652
vn 0.75113 -0.02905 0.65952
vn 0.35320 -0.92908 0.10983
vn -0.40148 -0.29188 0.86811
vn -0.25911 0.11147 0.95939
vn -0.45917 -0.81608 0.35097
vn -0.96373 0.26688 -0.00000
vn -0.76759 0.61679 0.17431
vn -0.86806 -0.40973 -0.28035
vn -0.19414 0.45682 -0.86811
vn -0.07161 0.78857 -0.61077
vn -0.30839 -0.27160 -0.91166
vn 0.84374 0.01545 -0.53652
vn 0.86701 0.38941 -0.31089
vn 0.44639 -0.59257 -0.67052
vn 0.71684 0.37530 0.58762
vn 0.44392 0.71395 0.54148
vn 0.84995 -0.32946 0.41114
vn -0.26053 -0.16769 0.95079
vn -0.43995 0.22290 0.86992
vn 0.13919 -0.72434 0.67525
vn -0.87785 -0.47894 0.00000
vn -0.99823 -0.05858 0.01007
vn -0.30975 -0.95068 -0.01619
vn -0.28201 -0.12831 -0.95079
vn -0.45939 0.25852 -0.84978
vn 0.12356 -0.69569 -0.70763
vn 0.70355 0.39964 -0.58762
vn 0.43191 0.73597 -0.52135
vn 0.84029 -0.31176 -0.44353
vn 0.84527 0.06217 0.53071
vn 0.85201 0.43148 0.29650
vn 0.47384 -0.55832 0.68100
vn -0.20801 0.46835 0.85871
vn -0.10053 0.79881 0.59312
vn -0.29213 -0.26293 0.91952
vn -0.97383 0.22729 0.00000
vn -0.79310 0.58081 -0.18345
vn -0.84906 -0.43824 0.29505
vn -0.39385 -0.32788 -0.85871
vn -0.26859 0.07875 -0.96003
vn -0.42728 -0.84197 -0.32943
vn 0.73042 -0.42993 -0.53071
vn 0.74814 -0.01354 -0.66340
vn 0.39032 -0.91618 -0.09090
usemtl crystal
f 1/1/1 2/2/1 3/3/1 4/4/1
f 5/5/2 6/6/2 7/7/2
f 8/8/3 9/9/3 10/10/3
f 11/11/4 12/12/4 13/13/4 14/14/4
f 15/15/5 16/16/5 17/17/5
f 18/18/6 19/19/6 20/20/6
f 21/21/7 22/22/7 23/23/7 24/24/7
f 25/25/8 26/26/8 27/27/8
f 28/28/9 29/29/9 30/30/9
f 31/31/10 32/32/10 33/33/10 34/34/10
f 35/35/11 36/36/11 37/37/11
f 38/38/12 39/39/12 40/40/12
f 41/41/13 42/42/13 43/43/13 44/44/13
f 45/45/14 46/46/14 47/47/14
f 48/48/15 49/49/15 50/50/15
f 51/51/16 52/52/16 53/53/16 54/54/16
f 55/55/17 56/56/17 57/57/17
f 58/58/18 59/59/18 60/60/18
f 61/61/19 62/62/19 63/63/19 64/64/19
f 65/65/20 66/66/20 67/67/20
f 68/68/21 69/69/21 70/70/21
f 71/71/22 72/72/22 73/73/22 74/74/22
f 75/75/23 76/76/23 77/77/23
f 78/78/24 79/79/24 80/80/24
f 81/81/25 82/82/25 83/83/25 84/84/25
f 85/85/26 86/86/26 87/87/26
f 88/88/27 89/89/27 90/90/27
f 91/91/28 92/92/28 93/93/28 94/94/28
f 95/95/29 96/96/29 97/97/29
f 98/98/30 99/99/30 100/100/30
f 101/101/31 102/102/31 103/103/31 104/104/31
f 105/105/32 106/106/32 107/107/32
f 108/108/33 109/109/33 110/110/33
f 111/111/34 112/112/34 113/113/34 114/114/34
f 115/115/35 116/116/35 117/117/35
f 118/118/36 119/119/36 120/120/36
f 121/121/37 122/122/37 123/123/37 124/124/37
f 125/125/38 126/126/38 127/127/38
f 128/128/39 129/129/39 130/130/39
f 131/131/40 132/132/40 133/133/40 134/134/40
f 135/135/41 136/136/41 137/137/41
f 138/138/42 139/139/42 140/140/42
f 141/141/43 142/142/43 143/143/43 144/144/43
f 145/145/44 146/146/44 147/147/44
f 148/148/45 149/149/45 150/150/45
f 151/151/46 152/152/46 153/153/46 154/154/46
f 155/155/47 156/156/47 157/157/47
f 158/158/48 159/159/48 160/160/48
f 161/161/49 162/162/49 163/163/49 164/164/49
f 165/165/50 166/166/50 167/167/50
f 168/168/51 169/169/51 170/170/51
f 171/171/52 172/172/52 173/173/52 174/174/52
f 175/175/53 176/176/53 177/177/53
f 178/178/54 179/179/54 180/180/54
f 181/181/55 182/182/55 183/183/55 184/184/55
f 185/185/56 186/186/56 187/187/56
f 188/188/57 189/189/57 190/190/57
f 191/191/58 192/192/58 193/193/58 194/194/58
f 195/195/59 196/196/59 197/197/59
f 198/198/60 199/199/60 200/200/60
f 201/201/61 202/202/61 203/203/61 204/204/61
f 205/205/62 206/206/62 207/207/62
f 208/208/63 209/209/63 210/210/63
